<svg width="21" height="23" viewBox="0 0 21 23" fill="none" xmlns="http://www.w3.org/2000/svg">
<path d="M1.98145 18.4092C1.47298 18.4092 1.07552 18.291 0.789062 18.0547C0.502604 17.8112 0.359375 17.4961 0.359375 17.1094C0.359375 16.7513 0.463216 16.404 0.670898 16.0674C0.878581 15.7308 1.13639 15.4014 1.44434 15.0791C1.75944 14.7497 2.07096 14.4274 2.37891 14.1123C2.61523 13.8617 2.79785 13.543 2.92676 13.1562C3.06283 12.7624 3.16309 12.3434 3.22754 11.8994C3.29199 11.4482 3.33854 11.0186 3.36719 10.6104C3.38867 9.23535 3.53548 8.01074 3.80762 6.93652C4.07975 5.85514 4.50586 4.94922 5.08594 4.21875C5.67318 3.48828 6.44303 2.95117 7.39551 2.60742C7.59603 1.9056 7.96484 1.3112 8.50195 0.824219C9.03906 0.33724 9.7015 0.09375 10.4893 0.09375C11.2842 0.09375 11.9502 0.33724 12.4873 0.824219C13.0244 1.3112 13.3932 1.9056 13.5938 2.60742C14.5462 2.95117 15.3125 3.48828 15.8926 4.21875C16.4727 4.94922 16.8988 5.85514 17.1709 6.93652C17.4502 8.01074 17.6006 9.23535 17.6221 10.6104C17.6507 11.0186 17.6973 11.4482 17.7617 11.8994C17.8262 12.3434 17.9229 12.7624 18.0518 13.1562C18.1878 13.543 18.374 13.8617 18.6104 14.1123C18.9183 14.4274 19.2262 14.7497 19.5342 15.0791C19.8493 15.4014 20.1107 15.7308 20.3184 16.0674C20.526 16.404 20.6299 16.7513 20.6299 17.1094C20.6299 17.4961 20.4867 17.8112 20.2002 18.0547C19.9137 18.291 19.5163 18.4092 19.0078 18.4092H1.98145ZM10.4893 22.7061C9.8877 22.7061 9.34701 22.5736 8.86719 22.3086C8.38737 22.0436 8.00065 21.6963 7.70703 21.2666C7.41341 20.8369 7.24512 20.3714 7.20215 19.8701H13.7871C13.737 20.3714 13.5651 20.8369 13.2715 21.2666C12.985 21.6963 12.6019 22.0436 12.1221 22.3086C11.6423 22.5736 11.098 22.7061 10.4893 22.7061Z" fill="white"/>
</svg>
