<svg width="27" height="27" viewBox="0 0 27 27" fill="none" xmlns="http://www.w3.org/2000/svg">
<path d="M12.2344 6.41252C11.1164 6.54963 10.1936 6.74475 9.1916 7.0717C6.35977 7.98928 3.58594 9.70842 0.954492 12.1711C0.100195 12.9727 0 13.1098 0 13.5C0 13.8903 0.100195 14.0274 0.954492 14.8289C2.19375 15.9891 3.12188 16.7274 4.42969 17.5869C6.83965 19.169 9.08086 20.0918 11.5225 20.4979C12.3557 20.635 14.6443 20.635 15.4775 20.4979C17.1229 20.2237 18.7365 19.691 20.3238 18.8948C22.3277 17.8928 24.1893 16.5692 26.0455 14.8289C26.8998 14.0274 27 13.8903 27 13.5C27 13.1098 26.8998 12.9727 26.0455 12.1711C23.4141 9.70842 20.6402 7.98928 17.8084 7.0717C16.2527 6.56545 15.3879 6.42834 13.7109 6.40725C12.999 6.3967 12.3346 6.40198 12.2344 6.41252ZM14.8447 8.15803C16.3951 8.59045 17.6502 9.58713 18.3621 10.9477C18.6469 11.5014 18.784 11.8916 18.9053 12.4928C19.0266 13.0781 18.9896 14.3016 18.8367 14.8448C18.4096 16.3899 17.4129 17.6502 16.0523 18.3621C15.0979 18.8578 14.407 19.0108 13.2943 18.9686C11.9812 18.9211 10.9582 18.5309 9.96152 17.6977C9.01758 16.9067 8.34785 15.7676 8.09473 14.5073C7.97344 13.9219 8.01035 12.6985 8.16328 12.1553C8.73809 10.067 10.3201 8.56936 12.4453 8.09475C12.941 7.98401 14.349 8.02092 14.8447 8.15803Z" fill="white"/>
<path d="M12.498 9.65043C12.2818 9.70844 11.9021 9.85609 11.6543 9.97738C11.2904 10.1567 11.1111 10.2938 10.7051 10.7051C10.2937 11.1112 10.1566 11.2905 9.97734 11.6543C9.66621 12.2766 9.54492 12.8039 9.54492 13.5C9.54492 14.1961 9.66621 14.7235 9.97734 15.3457C10.1566 15.7096 10.2937 15.8889 10.7051 16.295C11.1111 16.7063 11.2904 16.8434 11.6543 17.0227C12.3398 17.3655 12.8461 17.4709 13.6529 17.4446C14.2225 17.4235 14.3859 17.3971 14.7814 17.26C15.351 17.0596 15.7307 16.8329 16.1631 16.4373C16.5691 16.0735 16.8012 15.7571 17.049 15.2666C17.2283 14.9186 17.4445 14.212 17.3918 14.1592C17.3812 14.1487 17.2758 14.1592 17.165 14.1909C17.049 14.2225 16.7484 14.2383 16.5006 14.2278C16.0998 14.2067 15.9891 14.1803 15.6463 14.0116C15.1664 13.7743 14.7709 13.3682 14.5336 12.8672C14.3807 12.5455 14.3701 12.4875 14.3701 11.918C14.3701 11.3485 14.3807 11.2905 14.5389 10.9582C14.6338 10.7526 14.8236 10.4836 14.9977 10.3043C15.1611 10.1356 15.293 9.9932 15.293 9.98266C15.293 9.95101 14.9502 9.79808 14.6443 9.69789C14.1486 9.53441 13.0307 9.50805 12.498 9.65043Z" fill="white"/>
</svg>
