<svg width="49" height="40" viewBox="0 0 49 40" fill="none" xmlns="http://www.w3.org/2000/svg">
<path d="M21.8906 18.9292C21.679 18.9292 21.5285 18.8926 21.439 18.8193C21.3576 18.738 21.3169 18.5915 21.3169 18.3799V17.6597C21.3169 17.4481 21.3576 17.3016 21.439 17.2202C21.5285 17.1388 21.679 17.0981 21.8906 17.0981H22.6108C22.8224 17.0981 22.9689 17.1388 23.0503 17.2202C23.1398 17.3016 23.1846 17.4481 23.1846 17.6597V18.3799C23.1846 18.5915 23.1398 18.738 23.0503 18.8193C22.9689 18.8926 22.8224 18.9292 22.6108 18.9292H21.8906ZM25.9556 18.9292C25.7358 18.9292 25.5853 18.8926 25.5039 18.8193C25.4225 18.738 25.3818 18.5915 25.3818 18.3799V17.6597C25.3818 17.4481 25.4225 17.3016 25.5039 17.2202C25.5853 17.1388 25.7358 17.0981 25.9556 17.0981H26.6636C26.8833 17.0981 27.0339 17.1388 27.1152 17.2202C27.1966 17.3016 27.2373 17.4481 27.2373 17.6597V18.3799C27.2373 18.5915 27.1966 18.738 27.1152 18.8193C27.0339 18.8926 26.8833 18.9292 26.6636 18.9292H25.9556ZM30.0083 18.9292C29.7886 18.9292 29.638 18.8926 29.5566 18.8193C29.4753 18.738 29.4346 18.5915 29.4346 18.3799V17.6597C29.4346 17.4481 29.4753 17.3016 29.5566 17.2202C29.638 17.1388 29.7886 17.0981 30.0083 17.0981H30.7285C30.9401 17.0981 31.0866 17.1388 31.168 17.2202C31.2493 17.3016 31.29 17.4481 31.29 17.6597V18.3799C31.29 18.5915 31.2493 18.738 31.168 18.8193C31.0866 18.8926 30.9401 18.9292 30.7285 18.9292H30.0083ZM17.8379 22.9209C17.6182 22.9209 17.4676 22.8843 17.3862 22.811C17.3049 22.7297 17.2642 22.5832 17.2642 22.3716V21.6514C17.2642 21.4398 17.3049 21.2974 17.3862 21.2241C17.4676 21.1427 17.6182 21.1021 17.8379 21.1021H18.5581C18.7697 21.1021 18.9162 21.1427 18.9976 21.2241C19.0789 21.2974 19.1196 21.4398 19.1196 21.6514V22.3716C19.1196 22.5832 19.0789 22.7297 18.9976 22.811C18.9162 22.8843 18.7697 22.9209 18.5581 22.9209H17.8379ZM21.8906 22.9209C21.679 22.9209 21.5285 22.8843 21.439 22.811C21.3576 22.7297 21.3169 22.5832 21.3169 22.3716V21.6514C21.3169 21.4398 21.3576 21.2974 21.439 21.2241C21.5285 21.1427 21.679 21.1021 21.8906 21.1021H22.6108C22.8224 21.1021 22.9689 21.1427 23.0503 21.2241C23.1398 21.2974 23.1846 21.4398 23.1846 21.6514V22.3716C23.1846 22.5832 23.1398 22.7297 23.0503 22.811C22.9689 22.8843 22.8224 22.9209 22.6108 22.9209H21.8906ZM25.9556 22.9209C25.7358 22.9209 25.5853 22.8843 25.5039 22.811C25.4225 22.7297 25.3818 22.5832 25.3818 22.3716V21.6514C25.3818 21.4398 25.4225 21.2974 25.5039 21.2241C25.5853 21.1427 25.7358 21.1021 25.9556 21.1021H26.6636C26.8833 21.1021 27.0339 21.1427 27.1152 21.2241C27.1966 21.2974 27.2373 21.4398 27.2373 21.6514V22.3716C27.2373 22.5832 27.1966 22.7297 27.1152 22.811C27.0339 22.8843 26.8833 22.9209 26.6636 22.9209H25.9556ZM30.0083 22.9209C29.7886 22.9209 29.638 22.8843 29.5566 22.811C29.4753 22.7297 29.4346 22.5832 29.4346 22.3716V21.6514C29.4346 21.4398 29.4753 21.2974 29.5566 21.2241C29.638 21.1427 29.7886 21.1021 30.0083 21.1021H30.7285C30.9401 21.1021 31.0866 21.1427 31.168 21.2241C31.2493 21.2974 31.29 21.4398 31.29 21.6514V22.3716C31.29 22.5832 31.2493 22.7297 31.168 22.811C31.0866 22.8843 30.9401 22.9209 30.7285 22.9209H30.0083ZM17.8379 26.9248C17.6182 26.9248 17.4676 26.8841 17.3862 26.8027C17.3049 26.7214 17.2642 26.5749 17.2642 26.3633V25.6431C17.2642 25.4315 17.3049 25.2891 17.3862 25.2158C17.4676 25.1344 17.6182 25.0938 17.8379 25.0938H18.5581C18.7697 25.0938 18.9162 25.1344 18.9976 25.2158C19.0789 25.2891 19.1196 25.4315 19.1196 25.6431V26.3633C19.1196 26.5749 19.0789 26.7214 18.9976 26.8027C18.9162 26.8841 18.7697 26.9248 18.5581 26.9248H17.8379ZM21.8906 26.9248C21.679 26.9248 21.5285 26.8841 21.439 26.8027C21.3576 26.7214 21.3169 26.5749 21.3169 26.3633V25.6431C21.3169 25.4315 21.3576 25.2891 21.439 25.2158C21.5285 25.1344 21.679 25.0938 21.8906 25.0938H22.6108C22.8224 25.0938 22.9689 25.1344 23.0503 25.2158C23.1398 25.2891 23.1846 25.4315 23.1846 25.6431V26.3633C23.1846 26.5749 23.1398 26.7214 23.0503 26.8027C22.9689 26.8841 22.8224 26.9248 22.6108 26.9248H21.8906ZM25.9556 26.9248C25.7358 26.9248 25.5853 26.8841 25.5039 26.8027C25.4225 26.7214 25.3818 26.5749 25.3818 26.3633V25.6431C25.3818 25.4315 25.4225 25.2891 25.5039 25.2158C25.5853 25.1344 25.7358 25.0938 25.9556 25.0938H26.6636C26.8833 25.0938 27.0339 25.1344 27.1152 25.2158C27.1966 25.2891 27.2373 25.4315 27.2373 25.6431V26.3633C27.2373 26.5749 27.1966 26.7214 27.1152 26.8027C27.0339 26.8841 26.8833 26.9248 26.6636 26.9248H25.9556ZM15.9458 31.4414C14.6681 31.4414 13.7078 31.124 13.0649 30.4893C12.4302 29.8626 12.1128 28.9186 12.1128 27.6572V12.7524C12.1128 11.491 12.4302 10.547 13.0649 9.92041C13.7078 9.28564 14.6681 8.96826 15.9458 8.96826H32.6206C33.8983 8.96826 34.8545 9.28564 35.4893 9.92041C36.124 10.547 36.4414 11.491 36.4414 12.7524V27.6572C36.4414 28.9186 36.124 29.8626 35.4893 30.4893C34.8545 31.124 33.8983 31.4414 32.6206 31.4414H15.9458ZM15.7627 29.4761H32.7793C33.3245 29.4761 33.7437 29.3296 34.0366 29.0366C34.3296 28.7518 34.4761 28.3286 34.4761 27.7671V16.2559C34.4761 15.6943 34.3296 15.2712 34.0366 14.9863C33.7437 14.6934 33.3245 14.5469 32.7793 14.5469H15.7627C15.2256 14.5469 14.8105 14.6934 14.5176 14.9863C14.2246 15.2712 14.0781 15.6943 14.0781 16.2559V27.7671C14.0781 28.3286 14.2246 28.7518 14.5176 29.0366C14.8105 29.3296 15.2256 29.4761 15.7627 29.4761Z" fill="#BF5AF2"/>
</svg>
