<svg width="48" height="40" viewBox="0 0 48 40" fill="none" xmlns="http://www.w3.org/2000/svg">
<path d="M13.2388 33.2725C13.7189 33.012 14.0485 32.6825 14.2275 32.2837C14.4066 31.8931 14.4961 31.3682 14.4961 30.709V10.8848C14.4961 9.62337 14.8135 8.67936 15.4482 8.05273C16.0911 7.41797 17.0514 7.10059 18.3291 7.10059H33.0508C34.3285 7.10059 35.2847 7.41797 35.9194 8.05273C36.5623 8.67936 36.8838 9.62337 36.8838 10.8848V29.5005C36.8838 30.7537 36.5623 31.6937 35.9194 32.3203C35.2847 32.9551 34.3285 33.2725 33.0508 33.2725H13.2388ZM20.0503 27.4375H23.1021C23.5496 27.4375 23.8996 27.3114 24.1519 27.0591C24.4041 26.8068 24.5303 26.4569 24.5303 26.0093V22.9209C24.5303 22.4733 24.4041 22.1234 24.1519 21.8711C23.8996 21.6107 23.5496 21.4805 23.1021 21.4805H20.0503C19.5946 21.4805 19.2406 21.6107 18.9883 21.8711C18.736 22.1234 18.6099 22.4733 18.6099 22.9209V26.0093C18.6099 26.4569 18.736 26.8068 18.9883 27.0591C19.2406 27.3114 19.5946 27.4375 20.0503 27.4375ZM19.3911 14.376H32.0132C32.2248 14.376 32.4038 14.3027 32.5503 14.1562C32.6968 14.0016 32.77 13.8185 32.77 13.6069C32.77 13.4035 32.6968 13.2326 32.5503 13.0942C32.4038 12.9478 32.2248 12.8745 32.0132 12.8745H19.3911C19.1714 12.8745 18.9883 12.9478 18.8418 13.0942C18.6953 13.2326 18.6221 13.4035 18.6221 13.6069C18.6221 13.8185 18.6953 14.0016 18.8418 14.1562C18.9883 14.3027 19.1714 14.376 19.3911 14.376ZM19.3911 18.6729H32.0132C32.2248 18.6729 32.4038 18.6037 32.5503 18.4653C32.6968 18.3188 32.77 18.1398 32.77 17.9282C32.77 17.7166 32.6968 17.5376 32.5503 17.3911C32.4038 17.2446 32.2248 17.1714 32.0132 17.1714H19.3911C19.1714 17.1714 18.9883 17.2446 18.8418 17.3911C18.6953 17.5376 18.6221 17.7166 18.6221 17.9282C18.6221 18.1398 18.6953 18.3188 18.8418 18.4653C18.9883 18.6037 19.1714 18.6729 19.3911 18.6729ZM26.9595 22.9819H32.0132C32.2248 22.9819 32.3997 22.9128 32.5381 22.7744C32.6846 22.6279 32.7578 22.453 32.7578 22.2495C32.7578 22.0298 32.6846 21.8467 32.5381 21.7002C32.3997 21.5537 32.2248 21.4805 32.0132 21.4805H26.9595C26.7397 21.4805 26.5566 21.5537 26.4102 21.7002C26.2718 21.8467 26.2026 22.0298 26.2026 22.2495C26.2026 22.453 26.2718 22.6279 26.4102 22.7744C26.5566 22.9128 26.7397 22.9819 26.9595 22.9819ZM26.9595 27.3765H32.0132C32.2248 27.3765 32.3997 27.3073 32.5381 27.1689C32.6846 27.0225 32.7578 26.8475 32.7578 26.644C32.7578 26.4243 32.6846 26.2412 32.5381 26.0947C32.3997 25.9482 32.2248 25.875 32.0132 25.875H26.9595C26.7397 25.875 26.5566 25.9482 26.4102 26.0947C26.2718 26.2412 26.2026 26.4243 26.2026 26.644C26.2026 26.8475 26.2718 27.0225 26.4102 27.1689C26.5566 27.3073 26.7397 27.3765 26.9595 27.3765ZM9.11279 19.0024C9.11279 18.5223 9.21045 18.1113 9.40576 17.7695C9.60107 17.4196 9.87777 17.1551 10.2358 16.9761C10.5939 16.797 11.0212 16.7075 11.5176 16.7075H12.1157V29.9033C12.1157 30.1963 12.0506 30.4526 11.9204 30.6724C11.7902 30.8921 11.6112 31.0589 11.3833 31.1729C11.1554 31.2949 10.8991 31.36 10.6143 31.3682C10.3294 31.3682 10.0731 31.3071 9.84521 31.1851C9.61735 31.063 9.43831 30.8921 9.30811 30.6724C9.1779 30.4526 9.11279 30.1963 9.11279 29.9033V19.0024Z" fill="#8E8E93"/>
</svg>
