<svg width="49" height="40" viewBox="0 0 49 40" fill="none" xmlns="http://www.w3.org/2000/svg">
<path d="M8.73926 20.2334C8.73926 19.4958 8.89323 18.8763 9.20117 18.375C9.50911 17.8665 9.91016 17.4834 10.4043 17.2256C10.9056 16.9606 11.4463 16.8281 12.0264 16.8281C12.3916 16.8281 12.7246 16.8818 13.0254 16.9893C13.3262 17.0895 13.6377 17.2399 13.96 17.4404C14.2679 17.6266 14.5186 17.6768 14.7119 17.5908C14.9124 17.5049 15.0127 17.3294 15.0127 17.0645V13.0898C15.0127 12.0371 15.2848 11.2422 15.8291 10.7051C16.3805 10.1608 17.1934 9.88867 18.2676 9.88867H21.1357C21.3936 9.88867 21.5654 9.98893 21.6514 10.1895C21.7445 10.3828 21.6979 10.6335 21.5117 10.9414C21.304 11.2708 21.1465 11.5859 21.0391 11.8867C20.9388 12.1803 20.8887 12.5098 20.8887 12.875C20.8887 13.4551 21.0212 13.9958 21.2861 14.4971C21.5511 14.9912 21.9342 15.3923 22.4355 15.7002C22.944 16.0081 23.5635 16.1621 24.2939 16.1621C25.0244 16.1621 25.6403 16.0081 26.1416 15.7002C26.6501 15.3923 27.0332 14.9912 27.291 14.4971C27.556 13.9958 27.6885 13.4551 27.6885 12.875C27.6885 12.5098 27.6383 12.1803 27.5381 11.8867C27.4378 11.5859 27.2839 11.2708 27.0762 10.9414C26.89 10.6335 26.8398 10.3828 26.9258 10.1895C27.0189 9.98893 27.1943 9.88867 27.4521 9.88867H30.3203C31.3874 9.88867 32.1966 10.1608 32.748 10.7051C33.2995 11.2422 33.5752 12.0371 33.5752 13.0898V17.0645C33.5752 17.3294 33.6719 17.5049 33.8652 17.5908C34.0658 17.6768 34.3164 17.6266 34.6172 17.4404C34.9466 17.2399 35.2617 17.0895 35.5625 16.9893C35.8633 16.8818 36.1927 16.8281 36.5508 16.8281C37.138 16.8281 37.6787 16.9606 38.1729 17.2256C38.6742 17.4834 39.0788 17.8665 39.3867 18.375C39.6947 18.8763 39.8486 19.4958 39.8486 20.2334C39.8486 20.9639 39.6947 21.5833 39.3867 22.0918C39.0788 22.5931 38.6742 22.9762 38.1729 23.2412C37.6787 23.499 37.138 23.6279 36.5508 23.6279C36.1927 23.6279 35.8633 23.5778 35.5625 23.4775C35.2617 23.3701 34.9466 23.2161 34.6172 23.0156C34.3164 22.8294 34.0658 22.7793 33.8652 22.8652C33.6719 22.9512 33.5752 23.1266 33.5752 23.3916V27.3662C33.5752 28.4261 33.2995 29.2246 32.748 29.7617C32.1966 30.2988 31.3874 30.5674 30.3203 30.5674H27.4521C27.1943 30.5674 27.0189 30.4707 26.9258 30.2773C26.8398 30.084 26.89 29.8333 27.0762 29.5254C27.2839 29.196 27.4378 28.8809 27.5381 28.5801C27.6383 28.2865 27.6885 27.957 27.6885 27.5918C27.6885 27.0117 27.556 26.471 27.291 25.9697C27.0332 25.4684 26.6501 25.0674 26.1416 24.7666C25.6403 24.4587 25.0244 24.3047 24.2939 24.3047C23.5635 24.3047 22.944 24.4587 22.4355 24.7666C21.9342 25.0674 21.5511 25.4684 21.2861 25.9697C21.0212 26.471 20.8887 27.0117 20.8887 27.5918C20.8887 27.957 20.9388 28.2865 21.0391 28.5801C21.1465 28.8809 21.304 29.196 21.5117 29.5254C21.6979 29.8333 21.7445 30.084 21.6514 30.2773C21.5654 30.4707 21.3936 30.5674 21.1357 30.5674H18.2676C17.1934 30.5674 16.3805 30.2988 15.8291 29.7617C15.2848 29.2246 15.0127 28.4261 15.0127 27.3662V23.3916C15.0127 23.1266 14.9124 22.9512 14.7119 22.8652C14.5186 22.7793 14.2679 22.8294 13.96 23.0156C13.6377 23.2161 13.3262 23.3701 13.0254 23.4775C12.7246 23.5778 12.3916 23.6279 12.0264 23.6279C11.4463 23.6279 10.9056 23.499 10.4043 23.2412C9.91016 22.9762 9.50911 22.5931 9.20117 22.0918C8.89323 21.5833 8.73926 20.9639 8.73926 20.2334Z" fill="#8E8E93"/>
</svg>
