<svg width="48" height="40" viewBox="0 0 48 40" fill="none" xmlns="http://www.w3.org/2000/svg">
<path d="M22.8184 32.9429C22.501 32.9429 22.2324 32.8534 22.0127 32.6743C21.793 32.5034 21.6465 32.2593 21.5732 31.9419L20.9385 29.2563C20.7025 29.175 20.4705 29.0895 20.2427 29C20.0148 28.9105 19.7992 28.8169 19.5957 28.7192L17.252 30.1597C16.9834 30.3224 16.7067 30.3916 16.4219 30.3672C16.1452 30.3428 15.897 30.2207 15.6772 30.001L14.1147 28.4385C13.895 28.2188 13.7689 27.9624 13.7363 27.6694C13.7119 27.3765 13.7892 27.0998 13.9683 26.8394L15.3965 24.5078C15.2988 24.2962 15.2052 24.0806 15.1157 23.8608C15.0262 23.6411 14.9489 23.4214 14.8838 23.2017L12.1738 22.5547C11.8564 22.4896 11.6123 22.3472 11.4414 22.1274C11.2705 21.9077 11.1851 21.6392 11.1851 21.3218V19.1123C11.1851 18.8031 11.2705 18.5386 11.4414 18.3188C11.6123 18.0991 11.8564 17.9567 12.1738 17.8916L14.8594 17.2446C14.9326 16.9924 15.014 16.7563 15.1035 16.5366C15.2012 16.3169 15.2907 16.1094 15.3721 15.9141L13.9438 13.5459C13.7648 13.2855 13.6875 13.0169 13.7119 12.7402C13.7363 12.4554 13.8625 12.2031 14.0903 11.9834L15.6772 10.4087C15.9051 10.1971 16.1493 10.075 16.4097 10.0425C16.6782 10.0099 16.9468 10.071 17.2153 10.2256L19.5835 11.6904C19.7869 11.5846 20.0026 11.487 20.2305 11.3975C20.4665 11.2998 20.7025 11.2103 20.9385 11.1289L21.5732 8.43115C21.6465 8.12191 21.793 7.87777 22.0127 7.69873C22.2324 7.51969 22.501 7.43018 22.8184 7.43018H25.0645C25.3818 7.43018 25.6504 7.51969 25.8701 7.69873C26.0898 7.87777 26.2323 8.12191 26.2974 8.43115L26.9321 11.1533C27.1844 11.2347 27.4204 11.3201 27.6401 11.4097C27.868 11.4992 28.0796 11.5968 28.2749 11.7026L30.6675 10.2256C30.936 10.071 31.2005 10.014 31.4609 10.0547C31.7214 10.0872 31.9655 10.2052 32.1934 10.4087L33.7925 11.9834C34.0203 12.2031 34.1424 12.4554 34.1587 12.7402C34.1831 13.0169 34.1099 13.2855 33.939 13.5459L32.4985 15.9141C32.5799 16.1094 32.6654 16.3169 32.7549 16.5366C32.8525 16.7563 32.9421 16.9924 33.0234 17.2446L35.709 17.8916C36.0182 17.9567 36.2583 18.0991 36.4292 18.3188C36.6082 18.5386 36.6978 18.8031 36.6978 19.1123V21.3218C36.6978 21.6392 36.6082 21.9077 36.4292 22.1274C36.2583 22.3472 36.0182 22.4896 35.709 22.5547L32.999 23.2017C32.9258 23.4214 32.8444 23.6411 32.7549 23.8608C32.6735 24.0806 32.5799 24.2962 32.4741 24.5078L33.9146 26.8394C34.0936 27.0998 34.1668 27.3765 34.1343 27.6694C34.1099 27.9624 33.9878 28.2188 33.7681 28.4385L32.1934 30.001C31.9736 30.2207 31.7214 30.3428 31.4365 30.3672C31.1598 30.3916 30.8913 30.3224 30.6309 30.1597L28.2749 28.7192C28.0715 28.8169 27.8558 28.9105 27.6279 29C27.4001 29.0895 27.1681 29.175 26.9321 29.2563L26.2974 31.9419C26.2323 32.2593 26.0898 32.5034 25.8701 32.6743C25.6504 32.8534 25.3818 32.9429 25.0645 32.9429H22.8184ZM23.9414 24.4956C24.7308 24.4956 25.451 24.3003 26.1021 23.9097C26.7612 23.519 27.2821 22.9982 27.6646 22.3472C28.0552 21.688 28.2505 20.9637 28.2505 20.1743C28.2505 19.3849 28.0552 18.6688 27.6646 18.0259C27.2821 17.3748 26.7612 16.854 26.1021 16.4634C25.451 16.0728 24.7308 15.8774 23.9414 15.8774C23.152 15.8774 22.4318 16.0728 21.7808 16.4634C21.1297 16.854 20.6089 17.3748 20.2183 18.0259C19.8276 18.6688 19.6323 19.3849 19.6323 20.1743C19.6323 20.9637 19.8236 21.688 20.2061 22.3472C20.5967 22.9982 21.1175 23.519 21.7686 23.9097C22.4277 24.3003 23.152 24.4956 23.9414 24.4956Z" fill="#8E8E93"/>
</svg>
